<?xml version="1.0" encoding="UTF-8" standalone="no"?>
<svg
   xmlns:dc="http://purl.org/dc/elements/1.1/"
   xmlns:cc="http://creativecommons.org/ns#"
   xmlns:rdf="http://www.w3.org/1999/02/22-rdf-syntax-ns#"
   xmlns:svg="http://www.w3.org/2000/svg"
   xmlns="http://www.w3.org/2000/svg"
   xmlns:sodipodi="http://sodipodi.sourceforge.net/DTD/sodipodi-0.dtd"
   xmlns:inkscape="http://www.inkscape.org/namespaces/inkscape"
   width="31.086"
   height="48"
   viewBox="0 0 31.086 48"
   fill="none"
   version="1.1"
   id="svg4"
   sodipodi:docname="a_logo.svg"
   inkscape:version="1.0.1 (3bc2e813f5, 2020-09-07)">
  <metadata
     id="metadata10">
    <rdf:RDF>
      <cc:Work
         rdf:about="">
        <dc:format>image/svg+xml</dc:format>
        <dc:type
           rdf:resource="http://purl.org/dc/dcmitype/StillImage" />
        <dc:title></dc:title>
      </cc:Work>
    </rdf:RDF>
  </metadata>
  <defs
     id="defs8" />
  <sodipodi:namedview
     pagecolor="#ffffff"
     bordercolor="#666666"
     borderopacity="1"
     objecttolerance="10"
     gridtolerance="10"
     guidetolerance="10"
     inkscape:pageopacity="0"
     inkscape:pageshadow="2"
     inkscape:window-width="1278"
     inkscape:window-height="1018"
     id="namedview6"
     showgrid="false"
     inkscape:zoom="2.7125"
     inkscape:cx="0.57233183"
     inkscape:cy="36.818161"
     inkscape:window-x="-7"
     inkscape:window-y="0"
     inkscape:window-maximized="0"
     inkscape:current-layer="svg4" />
  <path
     fill-rule="evenodd"
     clip-rule="evenodd"
     d="m 23.396,23.6529 c -0.0434,0.2782 -0.1492,0.543 -0.3095,0.7746 -0.1603,0.2315 -0.3709,0.4237 -0.616,0.5623 -0.4937,0.3188 -0.9256,0.4782 -1.3626,0.6376 -0.9307,0.3214 -1.9103,0.6428 -2.9464,1.0156 -1.0926,0.3727 -2.0722,0.7455 -2.9463,1.0155 -1.0901,0.3728 -2.1262,0.6941 -3.1109,1.0669 -0.7408,0.3171 -1.4367,0.7302 -2.0696,1.229 -0.5886998,0.5333 -1.1023998,1.1439 -1.5271998,1.8151 -0.437,0.7455 -0.7121,1.7071 -0.7121,2.828 0,2.2445 0.545,3.9516 1.6377,5.0186 1.0900998,1.1235 3.1108998,1.6557 6.1059998,1.6557 3.0544,0 5.1266,-0.5862 6.2218,-1.7611 1.0875,-1.175 1.6325,-2.8281 1.6325,-4.962 V 23.6529 Z M 15.5417,0 c 5.3476,0 9.2735,1.01553 11.7802,3.09802 2.5093,2.03106 3.7639,4.64317 3.7639,7.73858 v 26.3782 c 0,1.0669 -0.216,2.2419 -0.5965,3.5222 -0.3856,1.2855 -1.1466,2.4579 -2.3473,3.5222 -1.1441,1.0721 -2.7252,1.9797 -4.7434,2.6738 C 21.3804,47.6272 18.7631,48 15.5443,48 12.3306,48 9.7082002,47.6272 7.6925002,46.933 c -2.0156,-0.6941 -3.5993,-1.6017 -4.7434,-2.6738 -1.0643,-0.9591 -1.8706,-2.1702 -2.34469998,-3.5222 -0.3857,-1.2778 -0.60419999875,-2.4527 -0.60419999875,-3.5196 V 33.001 c 0,-2.2445 0.59899999875,-4.327 1.79969997875,-6.1447 1.2006,-1.8665 2.8897,-3.1468 5.0725,-3.949 1.0901,-0.3728 2.3447,-0.7455 3.7612998,-1.2263 1.4192,-0.4834 2.7253,-0.9641 4.0364,-1.3883 1.3112,-0.4294 2.4553,-0.8587 3.4349,-1.2341 0.5911,-0.2365 1.1915,-0.4492 1.7996,-0.6376 l 0.9822,-0.4808 c 0.3856,-0.2134 0.7635,-0.5347 1.1466,-0.9615 0.3805,-0.4242 0.707,-0.905 0.9821,-1.4398 0.2907,-0.579 0.4404,-1.2186 0.4371,-1.8665 V 11.9627 C 23.4566,11.3361 23.3251,10.716 23.0669,10.145 22.851,9.5023 22.4139,8.91612 21.8149,8.38393 21.2158,7.84917 20.3957,7.42239 19.4162,7.09845 18.434,6.78222 17.128,6.62025 15.6523,6.62025 c -3.0544,0 -5.0726,0.59132 -6.1626998,1.8151 -0.9255,1.06953 -1.4705,2.40385 -1.5785,3.89755 0,0.3214 -0.2726,0.5348 -0.6016,0.5348 l -6.65109998,0.108 c -0.158,7e-4 -0.3099,-0.0611 -0.4226,-0.1718 -0.1126,-0.1108 -0.177,-0.2616 -0.179,-0.4195 v -1.5426 c 0,-1.4989 0.2751,-2.88722 0.8741,-4.22155 C 1.5325002,5.28334 2.4606002,4.16497 3.7127002,3.20086 c 1.2546,-0.95897 2.8923,-1.75855 4.854,-2.293308 C 10.4769,0.26481 12.8216,0 15.5468,0 Z"
     fill="#0a3871"
     id="path2" />
</svg>
